<?xml version="1.0" encoding="UTF-8"?>
<svg version="1.1" xmlns="http://www.w3.org/2000/svg" width="170" height="170">
<path d="M0 0 C56.1 0 112.2 0 170 0 C170 56.1 170 112.2 170 170 C113.9 170 57.8 170 0 170 C0 113.9 0 57.8 0 0 Z " fill="#FBFDFD" transform="translate(0,0)"/>
<path d="M0 0 C9.65843296 8.26564006 15.0861074 16.96479933 16.2109375 29.6015625 C16.6294922 39.65995507 14.22078171 49.07632247 7.71875 56.91796875 C-4.00097927 69.4190133 -17.11145915 73.40546028 -34.0390625 74.79296875 C-37.70759887 74.86153952 -41.37050887 74.85366173 -45.0390625 74.79296875 C-41.69732822 78.83822603 -38.20763496 82.66715384 -34.421875 86.30078125 C-33.46595459 87.22479736 -33.46595459 87.22479736 -32.49072266 88.16748047 C-31.19599724 89.4116737 -29.89099407 90.64526463 -28.57568359 91.86767578 C-27.6758374 92.73561768 -27.6758374 92.73561768 -26.7578125 93.62109375 C-26.21060547 94.13575195 -25.66339844 94.65041016 -25.09960938 95.18066406 C-24.0390625 96.79296875 -24.0390625 96.79296875 -24.20898438 98.81933594 C-25.46724963 101.81104663 -27.68436758 103.61940421 -30.0390625 105.79296875 C-33.34559604 104.38208464 -35.1938442 102.73765506 -37.4765625 99.98046875 C-40.17953552 96.73815541 -43.03361377 93.75828538 -46.0390625 90.79296875 C-46.98172463 89.84108582 -47.92310385 88.88793093 -48.86328125 87.93359375 C-49.81769587 86.97003973 -50.77212302 86.00649813 -51.7265625 85.04296875 C-52.21189453 84.54925781 -52.69722656 84.05554688 -53.19726562 83.546875 C-55.85746467 80.82681599 -55.85746467 80.82681599 -59.0390625 78.79296875 C-59.03108643 79.39230225 -59.02311035 79.99163574 -59.01489258 80.60913086 C-58.86123785 101.23677893 -59.77853656 124.29704886 -75.01953125 139.80859375 C-84.47357913 148.51290089 -93.81763332 151.31374486 -106.5703125 151.109375 C-111.62560836 150.64825004 -115.58502044 149.1564972 -120.0390625 146.79296875 C-120.72355469 146.45394531 -121.40804687 146.11492187 -122.11328125 145.765625 C-131.58840819 140.53475924 -138.00808003 132.07665929 -141.0390625 121.79296875 C-141.22726563 121.179375 -141.41546875 120.56578125 -141.609375 119.93359375 C-143.75724992 109.23327141 -142.18338251 98.37484409 -137.0390625 88.79296875 C-127.74801538 76.44389713 -114.88197709 71.37953848 -100.0390625 69.10546875 C-94.73052518 68.54312369 -89.3689977 68.71301972 -84.0390625 68.79296875 C-84.0390625 72.42296875 -84.0390625 76.05296875 -84.0390625 79.79296875 C-85.58335938 79.963125 -87.12765625 80.13328125 -88.71875 80.30859375 C-90.78393983 80.55266164 -92.8490394 80.79749419 -94.9140625 81.04296875 C-96.43386719 81.20732422 -96.43386719 81.20732422 -97.984375 81.375 C-108.7469215 82.68582297 -117.62603501 85.60953424 -125.0390625 93.79296875 C-130.55825225 101.43984614 -131.15733352 109.83756877 -129.68359375 119.00390625 C-127.51533324 126.1344274 -121.82651708 132.44835401 -115.578125 136.31640625 C-107.75949686 139.79409259 -100.51961669 139.79730549 -92.4140625 137.29296875 C-85.75943664 134.59158597 -81.00628686 130.66869435 -77.73046875 124.21484375 C-71.71920876 108.80135658 -71.1509615 91.12463954 -69.83551025 74.76739502 C-68.84390509 62.6249092 -67.66750797 50.50798569 -66.1640625 38.41796875 C-66.02693848 37.22026855 -65.88981445 36.02256836 -65.74853516 34.78857422 C-63.85887758 20.32707587 -58.33852869 8.72636491 -47.12109375 -0.66796875 C-33.37635394 -10.82824546 -13.59286618 -9.87142595 0 0 Z " fill="#459496" transform="translate(148.0390625,11.20703125)"/>
<path d="M0 0 C7.34489353 5.35361128 12.14196885 10.80656283 14.75 19.5 C15.73191507 29.31915074 14.19453336 37.34879402 7.83984375 45.1484375 C-4.66714959 57.73509321 -27.06565 57.92960109 -43.81274414 58.02075195 C-44.86453857 58.01390381 -45.91633301 58.00705566 -47 58 C-46.616981 53.60679514 -46.22603853 49.21438466 -45.828125 44.82250977 C-45.69417352 43.3321385 -45.56229052 41.84157967 -45.43261719 40.35083008 C-43.04140497 12.91626837 -43.04140497 12.91626837 -32.19140625 2.765625 C-23.17066445 -4.50242365 -10.25140813 -5.67328366 0 0 Z " fill="#FBFDFD" transform="translate(138,18)"/>
<path d="M0 0 C0.33 0 0.66 0 1 0 C1.99 6.93 1.99 6.93 3 14 C2.34 14.33 1.68 14.66 1 15 C0.718235 17.32383502 0.54828316 19.66176824 0.4375 22 C0.09650053 28.90349947 0.09650053 28.90349947 -1 30 C-1.06300719 31.83097014 -1.05931415 33.6643188 -1.02734375 35.49609375 C-1.01509766 36.61177734 -1.00285156 37.72746094 -0.99023438 38.87695312 C-0.95513506 41.2468068 -0.91608532 43.61660533 -0.87304688 45.98632812 C-0.86208984 47.10330078 -0.85113281 48.22027344 -0.83984375 49.37109375 C-0.82300537 50.40161865 -0.80616699 51.43214355 -0.78881836 52.49389648 C-1 55 -1 55 -3 57 C-3.74276031 58.97080157 -3.74276031 58.97080157 -4 61 C-3.67 61.66 -3.34 62.32 -3 63 C-3.6096522 65.69988829 -4.26617275 68.33610656 -5 71 C-5.1546875 71.66644531 -5.309375 72.33289063 -5.46875 73.01953125 C-7.41226144 80.26482757 -11.57870777 85.03153032 -17 90 C-17.804375 90.804375 -18.60875 91.60875 -19.4375 92.4375 C-19.953125 92.953125 -20.46875 93.46875 -21 94 C-20.06027344 93.89171875 -20.06027344 93.89171875 -19.1015625 93.78125 C-18.28429688 93.6884375 -17.46703125 93.595625 -16.625 93.5 C-15.81289062 93.4071875 -15.00078125 93.314375 -14.1640625 93.21875 C-12 93 -12 93 -10 93 C-10 92.34 -10 91.68 -10 91 C-9.360625 90.525625 -8.72125 90.05125 -8.0625 89.5625 C-5.71627037 88.0908635 -5.71627037 88.0908635 -5 85 C-3.515 85.495 -3.515 85.495 -2 86 C-9.18968001 94.78738668 -17.15733153 102.72402225 -29 104 C-37.91269352 104.6839477 -45.05305041 104.21703279 -53 100 C-53.68449219 99.66097656 -54.36898437 99.32195312 -55.07421875 98.97265625 C-64.54934569 93.74179049 -70.96901753 85.28369054 -74 75 C-74.18820313 74.38640625 -74.37640625 73.7728125 -74.5703125 73.140625 C-76.71818742 62.44030266 -75.14432001 51.58187534 -70 42 C-60.70895288 29.65092838 -47.84291459 24.58656973 -33 22.3125 C-27.69146268 21.75015494 -22.3299352 21.92005097 -17 22 C-17 25.63 -17 29.26 -17 33 C-18.54429688 33.17015625 -20.08859375 33.3403125 -21.6796875 33.515625 C-23.74487733 33.75969289 -25.8099769 34.00452544 -27.875 34.25 C-28.88820312 34.35957031 -29.90140625 34.46914062 -30.9453125 34.58203125 C-41.707859 35.89285422 -50.58697251 38.81656549 -58 47 C-63.51918975 54.64687739 -64.11827102 63.04460002 -62.64453125 72.2109375 C-60.47627074 79.34145865 -54.78745458 85.65538526 -48.5390625 89.5234375 C-40.72043436 93.00112384 -33.48055419 93.00433674 -25.375 90.5 C-18.72037414 87.79861722 -13.96722436 83.8757256 -10.69140625 77.421875 C-4.2767508 60.97404052 -3.8998694 41.95570661 -2.4375 24.5 C-2.24845811 22.26450076 -2.05846606 20.02909173 -1.86671448 17.79382324 C-1.69486756 15.78784948 -1.52592076 13.78162787 -1.35717773 11.77539062 C-0.98444908 7.8356258 -0.50955723 3.92410757 0 0 Z " fill="#7FC8CD" transform="translate(81,58)"/>
<path d="M0 0 C0.99 0 1.98 0 3 0 C3 7.59 3 15.18 3 23 C-0.3 23 -3.6 23 -7 23 C-10 20 -10 20 -10.375 16.5 C-10 13 -10 13 -8.8125 11.0625 C-6.41243666 9.65556632 -4.73531209 9.71207241 -2 10 C-1.67 10.33 -1.34 10.66 -1 11 C-0.67 7.37 -0.34 3.74 0 0 Z " fill="#494949" transform="translate(163,113)"/>
<path d="M0 0 C7 0 7 0 10 2 C10.3125 5.5 10.3125 5.5 10 9 C9.34 9.66 8.68 10.32 8 11 C8.43762807 14.17280351 9.77361505 17.05667611 11 20 C10.01 20 9.02 20 8 20 C4 14.74285714 4 14.74285714 4 12 C3.34 12 2.68 12 2 12 C2 14.64 2 17.28 2 20 C1.34 20 0.68 20 0 20 C0 13.4 0 6.8 0 0 Z " fill="#525252" transform="translate(93,139)"/>
<path d="M0 0 C0.90492187 0.02320313 1.80984375 0.04640625 2.7421875 0.0703125 C5.1553125 0.1321875 5.1553125 0.1321875 7.6171875 0.1953125 C7.6171875 4.1553125 7.6171875 8.1153125 7.6171875 12.1953125 C1.76417492 13.31427079 1.76417492 13.31427079 -1.3828125 13.1953125 C-4.0078125 11.1328125 -4.0078125 11.1328125 -5.3828125 8.1953125 C-5.21526046 3.92273548 -4.88260069 0.40021317 0 0 Z " fill="#5F5F5F" transform="translate(124.3828125,146.8046875)"/>
<path d="M0 0 C2.31282587 3.46923881 2.42478586 4.92205575 2 9 C0.9375 10.875 0.9375 10.875 -1 12 C-4.4093712 12.36528977 -6.88023824 12.6140629 -9.9375 10.9375 C-11.63335287 7.84506242 -11.43060657 5.44485259 -11 2 C-7.88980721 -1.98104677 -4.56233816 -1.18282841 0 0 Z " fill="#575757" transform="translate(130,124)"/>
<path d="M0 0 C0.33 0 0.66 0 1 0 C1.66 4.62 2.32 9.24 3 14 C2.01 14.495 2.01 14.495 1 15 C0.718235 17.32383502 0.54828316 19.66176824 0.4375 22 C0.09650053 28.90349947 0.09650053 28.90349947 -1 30 C-1.06300719 31.83097014 -1.05931415 33.6643188 -1.02734375 35.49609375 C-1.01509766 36.61177734 -1.00285156 37.72746094 -0.99023438 38.87695312 C-0.95513506 41.2468068 -0.91608532 43.61660533 -0.87304688 45.98632812 C-0.86208984 47.10330078 -0.85113281 48.22027344 -0.83984375 49.37109375 C-0.82300537 50.40161865 -0.80616699 51.43214355 -0.78881836 52.49389648 C-1 55 -1 55 -3 57 C-3.74276031 58.97080157 -3.74276031 58.97080157 -4 61 C-3.67 61.66 -3.34 62.32 -3 63 C-3.60760482 65.3494053 -4.27129528 67.68529088 -5 70 C-5.33 70 -5.66 70 -6 70 C-6.22302154 63.45803479 -5.97577108 57.14605591 -5.08984375 50.65625 C-3.94494429 41.95728466 -3.16985705 33.24184714 -2.4375 24.5 C-2.24845811 22.26450076 -2.05846606 20.02909173 -1.86671448 17.79382324 C-1.69486756 15.78784948 -1.52592076 13.78162787 -1.35717773 11.77539062 C-0.98444908 7.8356258 -0.50955723 3.92410757 0 0 Z " fill="#70ABAC" transform="translate(81,58)"/>
<path d="M0 0 C0.66 0 1.32 0 2 0 C2 1.65 2 3.3 2 5 C3.1446875 4.87625 3.1446875 4.87625 4.3125 4.75 C7 5 7 5 8.8125 6.875 C10 9 10 9 10 11 C12.0245738 9.06745228 13.42105792 7.36841312 15 5 C15.66 5 16.32 5 17 5 C15.55676531 9.73789165 13.62773267 13.98858151 11.375 18.375 C11.05015625 19.01566406 10.7253125 19.65632813 10.390625 20.31640625 C9.59742593 21.87947501 8.79922969 23.44000622 8 25 C7.01 25 6.02 25 5 25 C5.96625076 22.03222981 6.88731447 19.22000509 8.3125 16.4375 C9.32883795 13.89152983 9.32883795 13.89152983 7.625 11.3125 C7.08875 10.549375 6.5525 9.78625 6 9 C6 8.34 6 7.68 6 7 C4.68 7 3.36 7 2 7 C2 10.3 2 13.6 2 17 C1.34 17 0.68 17 0 17 C-0.19644384 15.10507254 -0.38177288 13.20899097 -0.5625 11.3125 C-0.66691406 10.25675781 -0.77132812 9.20101562 -0.87890625 8.11328125 C-0.99277552 5.18573914 -0.70848415 2.82868856 0 0 Z " fill="#585858" transform="translate(142,142)"/>
<path d="M0 0 C2.875 1 2.875 1 4.25 2.875 C4.875 5 4.875 5 4.875 8 C1.905 8 -1.065 8 -4.125 8 C-3.795 8.66 -3.465 9.32 -3.125 10 C-0.485 10 2.155 10 4.875 10 C3.25 12.0625 3.25 12.0625 0.875 14 C-2.25 13.9375 -2.25 13.9375 -5.125 13 C-7.45249345 9.50875983 -7.62799316 8.10777749 -7.125 4 C-4.92588477 0.70132715 -4.0025361 0 0 0 Z " fill="#6D6D6D" transform="translate(113.125,146)"/>
<path d="M0 0 C3.73639216 1.24546405 4.18756513 2.63404953 6 6 C6.99 4.02 7.98 2.04 9 0 C11.35953094 2.35953094 11.49141413 3.77895617 12 7 C12.66 7 13.32 7 14 7 C14.66 4.69 15.32 2.38 16 0 C16.99 0 17.98 0 19 0 C18.35550393 3.01217112 17.34977818 5.51655836 15.9375 8.25 C15.57527344 8.95640625 15.21304688 9.6628125 14.83984375 10.390625 C14.56269531 10.92171875 14.28554687 11.4528125 14 12 C13.34 12 12.68 12 12 12 C11.34 10.35 10.68 8.7 10 7 C8.04783565 8.95216435 7.15173355 10.53199953 6 13 C2.84297684 9.09130466 0 5.1385061 0 0 Z " fill="#5E5E5E" transform="translate(133,123)"/>
<path d="M0 0 C4 0 4 0 6.25 2 C6.8275 2.66 7.405 3.32 8 4 C7.67 4.99 7.34 5.98 7 7 C5.02 5.35 3.04 3.7 1 2 C1.01015137 2.59208252 1.02030273 3.18416504 1.03076172 3.79418945 C1.09292263 10.30649618 0.72448303 16.7050305 0.125 23.1875 C0.04636719 24.13302734 -0.03226562 25.07855469 -0.11328125 26.05273438 C-0.58641165 31.27536605 -1.35937851 36.01609521 -3 41 C-4.75607602 37.99786762 -5.20950744 36.1512068 -4.79296875 32.70703125 C-4.70080078 31.91232422 -4.60863281 31.11761719 -4.51367188 30.29882812 C-4.40603516 29.47833984 -4.29839844 28.65785156 -4.1875 27.8125 C-4.09146484 26.98041016 -3.99542969 26.14832031 -3.89648438 25.29101562 C-3.15085807 19.15085807 -3.15085807 19.15085807 -2 18 C-1.78871644 15.35015201 -1.62387334 12.71660103 -1.5 10.0625 C-1.13434803 2.26869607 -1.13434803 2.26869607 0 0 Z " fill="#73AEB1" transform="translate(88,88)"/>
<path d="M0 0 C-0.33 0.99 -0.66 1.98 -1 3 C-2.258125 2.9175 -3.51625 2.835 -4.8125 2.75 C-8.20902163 2.7351016 -8.20902163 2.7351016 -11 4.625 C-12.29618989 7.703451 -12.48288863 9.68876368 -12 13 C-10.62716577 15.54002013 -10.62716577 15.54002013 -8 17 C-5.24150058 17.32638734 -2.79515088 17.18634339 0 17 C0 17.99 0 18.98 0 20 C-7.99651568 20.6271777 -7.99651568 20.6271777 -12 18.125 C-15.30360128 14.61492364 -15.3931012 11.93566857 -15.35546875 7.26171875 C-14.78672178 3.64298801 -12.84834388 2.11969777 -10 0 C-6.30581799 -1.231394 -3.7943739 -0.64432764 0 0 Z " fill="#4E504F" transform="translate(107,116)"/>
<path d="M0 0 C0 0.33 0 0.66 0 1 C-1.66611905 1.042721 -3.33382885 1.04063832 -5 1 C-5.33 0.67 -5.66 0.34 -6 0 C-8.45284945 -0.15385787 -10.85820214 -0.23163294 -13.3125 -0.25 C-13.98990234 -0.270625 -14.66730469 -0.29125 -15.36523438 -0.3125 C-18.48324321 -0.33688326 -20.66209238 -0.18560354 -23.41796875 1.328125 C-25.24093777 3.0188857 -25.24093777 3.0188857 -26 6 C-26.66 6 -27.32 6 -28 6 C-28 5.34 -28 4.68 -28 4 C-29.98 4.66 -31.96 5.32 -34 6 C-26.46790961 -5.78935887 -11.53689965 -4.89444228 0 0 Z " fill="#D6F4F3" transform="translate(138,18)"/>
<path d="M0 0 C0.66 0 1.32 0 2 0 C4.63635354 9.88632577 5.88358009 20.56886598 1 30 C0.34 30.33 -0.32 30.66 -1 31 C-0.85962479 29.18706911 -0.71255111 27.3746557 -0.5625 25.5625 C-0.48128906 24.55316406 -0.40007812 23.54382813 -0.31640625 22.50390625 C0 20 0 20 1 19 C1.23075082 17.65252916 1.41153063 16.29622435 1.5625 14.9375 C1.7790625 12.9884375 1.7790625 12.9884375 2 11 C1.34 11 0.68 11 0 11 C0 7.37 0 3.74 0 0 Z " fill="#498C88" transform="translate(160,29)"/>
<path d="M0 0 C-9.34416454 5.84010284 -18.04409419 6.86427099 -29 6 C-32.4296875 4.984375 -32.4296875 4.984375 -35 4 C-35 3.67 -35 3.34 -35 3 C-34.39526855 3.01047363 -33.79053711 3.02094727 -33.16748047 3.03173828 C-30.4033633 3.07354668 -27.63931292 3.09940451 -24.875 3.125 C-23.44800781 3.15013672 -23.44800781 3.15013672 -21.9921875 3.17578125 C-15.71657392 3.2193619 -11.07952064 2.36071842 -5.3125 -0.1875 C-3 -1 -3 -1 0 0 Z " fill="#94CBD1" transform="translate(67,156)"/>
<path d="M0 0 C0.99 0 1.98 0 3 0 C3 7.59 3 15.18 3 23 C2.01 23 1.02 23 0 23 C0 15.41 0 7.82 0 0 Z " fill="#646464" transform="translate(135,136)"/>
<path d="M0 0 C4.875 0.875 4.875 0.875 6 2 C6.1875 4.4375 6.1875 4.4375 6 7 C5.34 7.66 4.68 8.32 4 9 C1.375 8.625 1.375 8.625 -1 8 C-1.625 5.6875 -1.625 5.6875 -2 3 C-1.34 2.01 -0.68 1.02 0 0 Z " fill="#ECECEC" transform="translate(157,125)"/>
<path d="M0 0 C0.66 0 1.32 0 2 0 C4.30163882 3.45245824 4.34490322 4.94738713 4 9 C3.34 9.66 2.68 10.32 2 11 C1.25723969 12.97080157 1.25723969 12.97080157 1 15 C1.33 15.66 1.66 16.32 2 17 C1.39239518 19.3494053 0.72870472 21.68529088 0 24 C-0.33 24 -0.66 24 -1 24 C-1.12867289 15.93649887 -0.79681084 8.02502344 0 0 Z " fill="#7AB9B9" transform="translate(76,104)"/>
<path d="M0 0 C0.33 0 0.66 0 1 0 C1 7.59 1 15.18 1 23 C-2.3 23 -5.6 23 -9 23 C-9.66 22.34 -10.32 21.68 -11 21 C-10.505 19.515 -10.505 19.515 -10 18 C-9.34 18.66 -8.68 19.32 -8 20 C-5.46048456 19.90888062 -5.46048456 19.90888062 -3 19 C-0.51955685 15.27933528 -0.55618827 12.13459526 -0.375 7.8125 C-0.31699219 6.68811523 -0.31699219 6.68811523 -0.2578125 5.54101562 C-0.16371784 3.69440801 -0.08077681 1.8472381 0 0 Z " fill="#6C6C6C" transform="translate(165,113)"/>
<path d="M0 0 C0.639375 0.185625 1.27875 0.37125 1.9375 0.5625 C6.07334611 1.15333516 9.8851173 0.58271759 14 0 C13.67 0.99 13.34 1.98 13 3 C12.24976563 3.01417969 11.49953125 3.02835938 10.7265625 3.04296875 C3.95281979 3.35862175 -0.94880057 4.46397899 -6.84375 7.84375 C-8.91320082 8.95345551 -10.70809017 9.54161803 -13 10 C-13 9.34 -13 8.68 -13 8 C-9.0018221 5.12630963 -4.60022425 3.63736795 0 2 C0 1.34 0 0.68 0 0 Z " fill="#35807C" transform="translate(116,12)"/>
<path d="M0 0 C2.375 -0.125 2.375 -0.125 5 0 C5.66 0.66 6.32 1.32 7 2 C6.44444444 6.55555556 6.44444444 6.55555556 5 8 C2.5 8.125 2.5 8.125 0 8 C-0.33 7.67 -0.66 7.34 -1 7 C-0.71269945 4.66055264 -0.38063221 2.3260857 0 0 Z " fill="#F1F1F1" transform="translate(123,149)"/>
<path d="M0 0 C2.4375 0.1875 2.4375 0.1875 3.4375 1.1875 C3.625 3.625 3.625 3.625 3.4375 6.1875 C2.7775 6.8475 2.1175 7.5075 1.4375 8.1875 C-1.1875 7.8125 -1.1875 7.8125 -3.5625 7.1875 C-4.1875 4.8125 -4.1875 4.8125 -4.5625 2.1875 C-2.5625 0.1875 -2.5625 0.1875 0 0 Z " fill="#F1F2F2" transform="translate(125.5625,125.8125)"/>
<path d="M0 0 C-5.10499425 4.39596727 -8.28192156 5.14553544 -14.9375 5.1875 C-15.95714844 5.20167969 -16.97679687 5.21585938 -18.02734375 5.23046875 C-21.07159667 4.99444914 -23.24737643 4.28252995 -26 3 C-26 2.34 -26 1.68 -26 1 C-25.38125 1.165 -24.7625 1.33 -24.125 1.5 C-16.82434661 2.66810454 -10.69772766 2.32497987 -3.8125 -0.44140625 C-2 -1 -2 -1 0 0 Z " fill="#8ACBD0" transform="translate(61,148)"/>
<path d="M0 0 C2.64 0 5.28 0 8 0 C8 0.99 8 1.98 8 3 C6.35 3 4.7 3 3 3 C3 6.3 3 9.6 3 13 C2.01 13 1.02 13 0 13 C0 8.71 0 4.42 0 0 Z " fill="#696868" transform="translate(110,123)"/>
<path d="M0 0 C0.66 0 1.32 0 2 0 C2 1.65 2 3.3 2 5 C3.65 5 5.3 5 7 5 C7.33 5.99 7.66 6.98 8 8 C5.03 7.505 5.03 7.505 2 7 C2 10.3 2 13.6 2 17 C1.34 17 0.68 17 0 17 C-0.19644384 15.10507254 -0.38177288 13.20899097 -0.5625 11.3125 C-0.66691406 10.25675781 -0.77132812 9.20101562 -0.87890625 8.11328125 C-0.99277552 5.18573914 -0.70848415 2.82868856 0 0 Z " fill="#434343" transform="translate(142,142)"/>
<path d="M0 0 C2.475 0.495 2.475 0.495 5 1 C4.01 1.33 3.02 1.66 2 2 C2 4.64 2 7.28 2 10 C2.66 10.33 3.32 10.66 4 11 C3.34 11 2.68 11 2 11 C2 13.97 2 16.94 2 20 C1.34 20 0.68 20 0 20 C0 13.4 0 6.8 0 0 Z " fill="#444444" transform="translate(93,139)"/>
<path d="M0 0 C1.02577148 0.00676758 1.02577148 0.00676758 2.07226562 0.01367188 C3.73571604 0.0253044 5.3991205 0.04323306 7.0625 0.0625 C3.3257157 2.55368953 1.31798181 2.2690226 -3.125 2.1875 C-4.39730469 2.16945313 -5.66960937 2.15140625 -6.98046875 2.1328125 C-8.44419922 2.09800781 -8.44419922 2.09800781 -9.9375 2.0625 C-10.2675 3.0525 -10.5975 4.0425 -10.9375 5.0625 C-11.9275 5.0625 -12.9175 5.0625 -13.9375 5.0625 C-14.2675 3.7425 -14.5975 2.4225 -14.9375 1.0625 C-9.89895894 0.23038724 -5.1249338 -0.0453534 0 0 Z " fill="#5D989A" transform="translate(105.9375,74.9375)"/>
<path d="M0 0 C0.33 0.99 0.66 1.98 1 3 C-1.95238251 8.30540917 -6.90034291 15.10454351 -12.8125 16.8125 C-13.534375 16.874375 -14.25625 16.93625 -15 17 C-15 16.34 -15 15.68 -15 15 C-13.4609375 13.73828125 -13.4609375 13.73828125 -11.375 12.3125 C-6.7828828 8.99279893 -2.56544448 5.13088897 0 0 Z " fill="#DEF4F6" transform="translate(158,63)"/>
<path d="M0 0 C0 4.53850662 -2.5336296 7.3004444 -5 11 C-6.24156883 13.33707073 -7.1586846 15.4760538 -8 18 C-8.66 18 -9.32 18 -10 18 C-7.78889457 10.80214617 -5.62662818 5.23858486 0 0 Z " fill="#92CCCF" transform="translate(17,94)"/>
<path d="M0 0 C0.33 0 0.66 0 1 0 C2.93051271 7.72205085 2.4425715 14.81735082 -1 22 C-2.60546875 23.76171875 -2.60546875 23.76171875 -4 25 C-3.74438677 22.6568787 -3.40729228 20.32156597 -3 18 C-2.34 17.67 -1.68 17.34 -1 17 C-0.67 11.39 -0.34 5.78 0 0 Z " fill="#D3EEEC" transform="translate(151,35)"/>
<path d="M0 0 C0.928125 0.20625 1.85625 0.4125 2.8125 0.625 C1.8225 1.12 1.8225 1.12 0.8125 1.625 C1.1425 2.945 1.4725 4.265 1.8125 5.625 C-0.4975 5.625 -2.8075 5.625 -5.1875 5.625 C-5.5175 4.305 -5.8475 2.985 -6.1875 1.625 C-3.1875 -0.375 -3.1875 -0.375 0 0 Z " fill="#979797" transform="translate(113.1875,146.375)"/>
<path d="M0 0 C-2.33485433 4.66970867 -3.05753473 6.02301389 -8 8 C-8.33 8.66 -8.66 9.32 -9 10 C-9.66 10 -10.32 10 -11 10 C-10.41861767 6.77788109 -9.49498087 5.06332259 -7.1875 2.75 C-6.68605469 2.22921875 -6.18460937 1.7084375 -5.66796875 1.171875 C-4 0 -4 0 0 0 Z " fill="#388281" transform="translate(105,10)"/>
<path d="M0 0 C0.94875 0.04125 1.8975 0.0825 2.875 0.125 C1.225 1.445 -0.425 2.765 -2.125 4.125 C-1.62668276 7.81254757 -1.02432357 9.72990662 1.875 12.125 C-2.875 11.375 -2.875 11.375 -5.125 9.125 C-5.375 5.625 -5.375 5.625 -5.125 2.125 C-3.125 0.125 -3.125 0.125 0 0 Z " fill="#4C4E4D" transform="translate(124.125,123.875)"/>
<path d="M0 0 C1.65 0 3.3 0 5 0 C5.625 2.375 5.625 2.375 6 5 C5.34 5.66 4.68 6.32 4 7 C2.68 7 1.36 7 0 7 C0 4.69 0 2.38 0 0 Z " fill="#ECECEC" transform="translate(95,142)"/>
<path d="M0 0 C-0.639375 0.598125 -1.27875 1.19625 -1.9375 1.8125 C-4.20310389 3.90810337 -4.20310389 3.90810337 -5 7 C-5.66 7 -6.32 7 -7 7 C-7 6.34 -7 5.68 -7 5 C-8.98 5.66 -10.96 6.32 -13 7 C-9.10548524 1.71458711 -6.6563694 -0.3697983 0 0 Z " fill="#E7F8F6" transform="translate(117,17)"/>
<path d="M0 0 C0.99 0.66 1.98 1.32 3 2 C3.1875 5.125 3.1875 5.125 3 8 C-0.3 8 -3.6 8 -7 8 C-7.33 7.01 -7.66 6.02 -8 5 C-5.03 5 -2.06 5 1 5 C0.67 3.35 0.34 1.7 0 0 Z " fill="#EAEAEA" transform="translate(117,149)"/>
<path d="M0 0 C-0.33 0.66 -0.66 1.32 -1 2 C-6.18899929 3.61037909 -10.58999807 4.22541675 -16 4 C-11.34158975 -1.14031476 -6.42886252 -0.40532233 0 0 Z " fill="#3E8883" transform="translate(137,80)"/>
<path d="M0 0 C0.33 0 0.66 0 1 0 C1.28525467 3.37868305 1.4508813 6.63197103 1 10 C-1.375 12.0625 -1.375 12.0625 -4 13 C-4.99 13.495 -4.99 13.495 -6 14 C-5.31113213 10.61108678 -4.01283514 7.81988387 -2.4375 4.75 C-1.75494141 3.41195312 -1.75494141 3.41195312 -1.05859375 2.046875 C-0.70925781 1.37140625 -0.35992187 0.6959375 0 0 Z " fill="#3A847D" transform="translate(152,50)"/>
<path d="M0 0 C0.66 0 1.32 0 2 0 C2 5.61 2 11.22 2 17 C1.67 17 1.34 17 1 17 C1 14.69 1 12.38 1 10 C0.34 10 -0.32 10 -1 10 C-1.02689216 8.52093108 -1.04634621 7.04172517 -1.0625 5.5625 C-1.07410156 4.73878906 -1.08570313 3.91507813 -1.09765625 3.06640625 C-1 1 -1 1 0 0 Z " fill="#E5E4E5" transform="translate(140,142)"/>
<path d="M0 0 C-0.33 0.99 -0.66 1.98 -1 3 C-2.77049689 3.05410687 -4.54146849 3.09284119 -6.3125 3.125 C-7.79169922 3.15980469 -7.79169922 3.15980469 -9.30078125 3.1953125 C-12 3 -12 3 -15 1 C-9.94997778 -0.03590199 -5.12583611 -0.10251672 0 0 Z " fill="#438885" transform="translate(129,73)"/>
<path d="M0 0 C-0.5 1.8125 -0.5 1.8125 -2 4 C-4.5863924 5.26152609 -7.25200829 6.15643045 -10 7 C-10 6.01 -10 5.02 -10 4 C-3.375 0 -3.375 0 0 0 Z " fill="#3A847F" transform="translate(144,66)"/>
<path d="M0 0 C0.66 0.33 1.32 0.66 2 1 C2 1.66 2 2.32 2 3 C3.32 2.67 4.64 2.34 6 2 C5.67 3.32 5.34 4.64 5 6 C4.01 5.67 3.02 5.34 2 5 C1.01 6.98 0.02 8.96 -1 11 C-2.60080151 6.99799622 -1.29279692 3.95443764 0 0 Z " fill="#DAEAEB" transform="translate(86,122)"/>
<path d="M0 0 C0.33 0.66 0.66 1.32 1 2 C0.236875 2.020625 -0.52625 2.04125 -1.3125 2.0625 C-4.41389118 2.79660949 -4.41389118 2.79660949 -5.8125 6.5625 C-6.204375 7.696875 -6.59625 8.83125 -7 10 C-7.33 10 -7.66 10 -8 10 C-8.36272727 3.59181818 -8.36272727 3.59181818 -6.8125 1.0625 C-4.43958382 -0.32851983 -2.70313576 -0.21917317 0 0 Z " fill="#535353" transform="translate(161,123)"/>
<path d="M0 0 C1.98 0 3.96 0 6 0 C5.67 0.99 5.34 1.98 5 3 C6.32 4.32 7.64 5.64 9 7 C8.34 7.66 7.68 8.32 7 9 C5.82737096 7.88121617 4.66204862 6.75476949 3.5 5.625 C2.8503125 4.99851562 2.200625 4.37203125 1.53125 3.7265625 C0 2 0 2 0 0 Z " fill="#D4F0F0" transform="translate(103,86)"/>
<path d="M0 0 C0.66 0 1.32 0 2 0 C2 3.96 2 7.92 2 12 C1.34 12 0.68 12 0 12 C-1.21724428 8.04395608 -1.89679663 3.79359325 0 0 Z " fill="#4A4A4A" transform="translate(130,147)"/>
<path d="M0 0 C0.99 0 1.98 0 3 0 C3.33 1.65 3.66 3.3 4 5 C-1.94 5.495 -1.94 5.495 -8 6 C-8 4.68 -8 3.36 -8 2 C-7.34 2 -6.68 2 -6 2 C-6 2.66 -6 3.32 -6 4 C-3.69 4 -1.38 4 1 4 C0.67 2.68 0.34 1.36 0 0 Z " fill="#515151" transform="translate(114,148)"/>
<path d="M0 0 C0 0.33 0 0.66 0 1 C-6.43013467 2.73955334 -12.34949576 3.24991456 -19 3 C-12.70922672 -0.23751093 -6.96007604 -0.1216324 0 0 Z " fill="#DFF8F9" transform="translate(56,92)"/>
<path d="M0 0 C3.36720387 1.39332574 4.9859524 2.9789286 7 6 C5.02 6 3.04 6 1 6 C0.67 6.66 0.34 7.32 0 8 C0 5.36 0 2.72 0 0 Z " fill="#DCF5F7" transform="translate(89,90)"/>
<path d="M0 0 C0.95465783 2.16967689 1.14401212 3.56328793 0.3984375 5.82421875 C-0.35870385 7.5684743 -1.17609198 9.28627131 -2 11 C-2.33 11 -2.66 11 -3 11 C-3.36923077 4.6 -3.36923077 4.6 -1.5 1.5625 C-1.005 1.046875 -0.51 0.53125 0 0 Z " fill="#7EBABE" transform="translate(83,129)"/>
<path d="M0 0 C0.91007812 0.00902344 1.82015625 0.01804688 2.7578125 0.02734375 C3.45648438 0.03894531 4.15515625 0.05054688 4.875 0.0625 C5.205 0.7225 5.535 1.3825 5.875 2.0625 C4.905625 2.041875 3.93625 2.02125 2.9375 2 C0.00034105 1.70631501 0.00034105 1.70631501 -1.125 3.0625 C-2.79117115 3.10313832 -4.45888095 3.105221 -6.125 3.0625 C-6.455 2.4025 -6.785 1.7425 -7.125 1.0625 C-4.60024538 -0.19987731 -2.81299534 -0.03606404 0 0 Z " fill="#3B817E" transform="translate(121.125,3.9375)"/>
<path d="M0 0 C6.75 0.875 6.75 0.875 9 2 C9 2.66 9 3.32 9 4 C5.625 4.625 5.625 4.625 2 5 C1.34 4.34 0.68 3.68 0 3 C0 2.01 0 1.02 0 0 Z " fill="#656565" transform="translate(121,155)"/>
<path d="M0 0 C3.28670403 3.28670403 5 7.35868331 5 12 C4.34 12 3.68 12 3 12 C2.29773859 10.75823305 1.61370891 9.50614401 0.9375 8.25 C0.36322266 7.20585937 0.36322266 7.20585937 -0.22265625 6.140625 C-1.1312406 3.63859372 -0.88336837 2.4667645 0 0 Z " fill="#535353" transform="translate(142,123)"/>
<path d="M0 0 C0.33 0 0.66 0 1 0 C1.33 3.3 1.66 6.6 2 10 C0.02 10.99 0.02 10.99 -2 12 C-1.44687265 7.97007218 -0.8441938 3.97977076 0 0 Z " fill="#92C5CE" transform="translate(74,122)"/>
<path d="M0 0 C-0.33 0.99 -0.66 1.98 -1 3 C-3.97 2.67 -6.94 2.34 -10 2 C-10 1.34 -10 0.68 -10 0 C-6.30581799 -1.231394 -3.7943739 -0.64432764 0 0 Z " fill="#595858" transform="translate(107,116)"/>
<path d="M0 0 C0 0.66 0 1.32 0 2 C-1.76641683 2.6987693 -3.53832664 3.38366583 -5.3125 4.0625 C-6.79169922 4.63677734 -6.79169922 4.63677734 -8.30078125 5.22265625 C-11 6 -11 6 -14 5 C-12.75264433 4.3490741 -11.50198168 3.70448331 -10.25 3.0625 C-9.55390625 2.70285156 -8.8578125 2.34320313 -8.140625 1.97265625 C-5.41232415 0.7329721 -3.00198386 0 0 0 Z " fill="#94CBCE" transform="translate(38,83)"/>
<path d="M0 0 C0.66 0 1.32 0 2 0 C2 1.65 2 3.3 2 5 C0.02253397 5.73080266 -1.98072489 6.39421747 -4 7 C-4.66 6.67 -5.32 6.34 -6 6 C-5.01 5.67 -4.02 5.34 -3 5 C-2.67 4.01 -2.34 3.02 -2 2 C-1.34 1.34 -0.68 0.68 0 0 Z " fill="#317F84" transform="translate(144,72)"/>
<path d="M0 0 C0.68359375 1.796875 0.68359375 1.796875 1 4 C-0.21484375 5.703125 -0.21484375 5.703125 -1.9375 7.25 C-2.50339844 7.77078125 -3.06929687 8.2915625 -3.65234375 8.828125 C-4.09707031 9.21484375 -4.54179687 9.6015625 -5 10 C-5.99 9.67 -6.98 9.34 -8 9 C-7.360625 8.566875 -6.72125 8.13375 -6.0625 7.6875 C-3.73253997 6.08760823 -3.73253997 6.08760823 -3 3 C-1.4375 1.3125 -1.4375 1.3125 0 0 Z " fill="#397C7C" transform="translate(155,64)"/>
<path d="M0 0 C0.99 0 1.98 0 3 0 C3.33 2.64 3.66 5.28 4 8 C4.66 8 5.32 8 6 8 C5.67 8.99 5.34 9.98 5 11 C3 10 3 10 2.1484375 7.71484375 C1.89320313 6.79832031 1.63796875 5.88179687 1.375 4.9375 C1.11460937 4.01839844 0.85421875 3.09929688 0.5859375 2.15234375 C0.39257812 1.44207031 0.19921875 0.73179688 0 0 Z " fill="#35827C" transform="translate(149,28)"/>
<path d="M0 0 C2.64 1.98 5.28 3.96 8 6 C4 7 4 7 1.75 6.0625 C1.1725 5.711875 0.595 5.36125 0 5 C0 3.35 0 1.7 0 0 Z " fill="#93CCCA" transform="translate(24,141)"/>
<path d="M0 0 C0.33 0 0.66 0 1 0 C1.50423019 5.29441695 0.18923033 7.81413519 -3 12 C-3.66 11.67 -4.32 11.34 -5 11 C-4.360625 9.9275 -3.72125 8.855 -3.0625 7.75 C-1.59398727 5.19177818 -0.47145458 2.94659114 0 0 Z " fill="#D8F4F8" transform="translate(83,133)"/>
<path d="M0 0 C2 3 2 3 1.9375 5.5625 C1 8 1 8 -1.5625 9.3125 C-2.7690625 9.6528125 -2.7690625 9.6528125 -4 10 C-2.8905928 6.51329166 -1.73662334 3.22515763 0 0 Z " fill="#E8E8E8" transform="translate(152,123)"/>
<path d="M0 0 C2.31 0.33 4.62 0.66 7 1 C8 4 8 4 7.0625 6.1875 C6.5365625 7.0846875 6.5365625 7.0846875 6 8 C5.87625 7.071875 5.87625 7.071875 5.75 6.125 C5.20005805 3.8234856 5.20005805 3.8234856 3 2.875 C2.34 2.58625 1.68 2.2975 1 2 C0.67 1.34 0.34 0.68 0 0 Z " fill="#6A6D6C" transform="translate(123,123)"/>
<path d="M0 0 C0.33 0.99 0.66 1.98 1 3 C-0.4375 5.1875 -0.4375 5.1875 -2 7 C-3.32 6.67 -4.64 6.34 -6 6 C-4.02 4.02 -2.04 2.04 0 0 Z " fill="#99CED6" transform="translate(67,140)"/>
<path d="M0 0 C0.99 0 1.98 0 3 0 C1.62845496 2.95409701 0.01136276 5.44008376 -2 8 C-2.66 7.67 -3.32 7.34 -4 7 C-2.68 4.69 -1.36 2.38 0 0 Z " fill="#3E8384" transform="translate(100,23)"/>
<path d="M0 0 C0.66 0.33 1.32 0.66 2 1 C-0.125 3.0625 -0.125 3.0625 -3 5 C-6.3125 4.75 -6.3125 4.75 -9 4 C-6.06195683 2.47657021 -3.13439441 1.07229283 0 0 Z " fill="#9BD2D3" transform="translate(59,147)"/>
<path d="M0 0 C3.1875 0.3125 3.1875 0.3125 6 1 C6 1.66 6 2.32 6 3 C3.03 3 0.06 3 -3 3 C-2.01 2.01 -1.02 1.02 0 0 Z " fill="#7AB6B8" transform="translate(56,88)"/>
<path d="M0 0 C0.33 0 0.66 0 1 0 C1 2.97 1 5.94 1 9 C0.01 9.33 -0.98 9.66 -2 10 C-1.46274105 6.62294375 -0.88935377 3.303314 0 0 Z " fill="#629B9C" transform="translate(86,30)"/>
<path d="M0 0 C2.97 0.495 2.97 0.495 6 1 C6 1.99 6 2.98 6 4 C3.69 3.67 1.38 3.34 -1 3 C-0.67 2.01 -0.34 1.02 0 0 Z " fill="#6F6E6E" transform="translate(96,139)"/>
<path d="M0 0 C0.66 0.33 1.32 0.66 2 1 C2.1875 4.3125 2.1875 4.3125 2 8 C1.01 8.99 0.02 9.98 -1 11 C-0.67 7.37 -0.34 3.74 0 0 Z " fill="#338079" transform="translate(160,49)"/>
<path d="M0 0 C1.9375 0.5625 1.9375 0.5625 4 2 C4.75 5.625 4.75 5.625 5 9 C4.731875 8.38125 4.46375 7.7625 4.1875 7.125 C3.04443152 4.7004767 3.04443152 4.7004767 0 3 C0 2.01 0 1.02 0 0 Z " fill="#3E8180" transform="translate(152,17)"/>
</svg>
